PathFileType	4	(X/Y/Z)	53_1_tpose_p1_0-169.trc
DataRate	CameraRate	NumFrames	NumMarkers	Units	OrigDataRate	OrigDataStartFrame	OrigNumFrames
50.0	50.0	5	27	m	50.0	63	170
Frame#	Time	RHip			RKnee			RAnkle			RBigToe			RSmallToe			RHeel			LHip			LKnee			LAnkle			LBigToe			LSmallToe			LHeel			Neck			Head			Nose			RShoulder			RElbow			RWrist			RThumb			RIndex			RPinky			LShoulder			LElbow			LWrist			LThumb			LIndex			LPinky			
		X1	Y1	Z1	X2	Y2	Z2	X3	Y3	Z3	X4	Y4	Z4	X5	Y5	Z5	X6	Y6	Z6	X7	Y7	Z7	X8	Y8	Z8	X9	Y9	Z9	X10	Y10	Z10	X11	Y11	Z11	X12	Y12	Z12	X13	Y13	Z13	X14	Y14	Z14	X15	Y15	Z15	X16	Y16	Z16	X17	Y17	Z17	X18	Y18	Z18	X19	Y19	Z19	X20	Y20	Z20	X21	Y21	Z21	X22	Y22	Z22	X23	Y23	Z23	X24	Y24	Z24	X25	Y25	Z25	X26	Y26	Z26	X27	Y27	Z27	
63	1.26	0.38483561703936325	0.655160729218552	0.6651641749177001	0.397566055985508	0.7958901090967708	1.1203364450821482	0.37989560881929996	0.903877271679916	1.5328802106737358	0.32531713988044936	0.7531156883521911	1.5838316070458573	0.3909670011921235	0.783533627138048	1.593169633583587	0.34076745760908794	1.0036510633682523	1.610866958150164	0.19688170743035316	0.6357835518973133	0.6565611872074123	0.1566060760238979	0.8002131362703737	1.100434125312446	0.1458571644563065	0.9124294866061847	1.5513591533573794	0.16704921259986616	0.7326773013780805	1.5627987312950737	0.10370686488333808	0.7751594062652231	1.5647657329140319	0.17058039016608806	0.9754306272316663	1.5912818252453829	0.2967096261314164	0.5689772920083165	0.1524509018174144	0.3160156275316276	0.44946762434941645	-0.06177446944073766	0.2967652074786838	0.39554225167225726	0.06867046208711812	0.43363287651128385	0.5355996298619585	0.21357224898719274	0.7058891454414349	0.6159016611791086	0.26753548646225944	0.9502457506882603	0.594764063902291	0.28009812359231806	1.0899787323058645	0.5725703730619736	0.2941732419823101	1.1102062582788352	0.5507382917279573	0.2985632480058327	1.0881085137239617	0.590318793144831	0.31704658217458387	0.15275800806487397	0.5840193844374562	0.20047506977479676	-0.09913576275342185	0.6463008499815017	0.21313575414645825	-0.3804074930180556	0.6403142779309745	0.2313678622671083	-0.4723043842198499	0.6264111472934638	0.2349273091866681	-0.4818629859535203	0.6321077735542969	0.2260055555607749	-0.48074796420274424	0.6475716965868494	0.2211991437239112
64	1.28	0.38481915661246613	0.6550858249175637	0.6651171585479183	0.3974980529058757	0.7958006653275583	1.1203047447421932	0.37534157164299636	0.9031898179566967	1.5326018357102826	0.32517322703475404	0.7542780422539284	1.5797225733445945	0.3909581028805999	0.7836423952262691	1.5932082741583367	0.3407803166372799	1.003672251984104	1.6108799716241282	0.1968088115774692	0.6357062463513244	0.6564496033310495	0.15319495845253536	0.7862640545848327	1.0970439402302783	0.15056874063177314	0.8952471323963134	1.545198908942125	0.1670211529418817	0.7327783764374353	1.5627728848645177	0.10372592914028743	0.775098887249566	1.564697004258253	0.170623617433874	0.9753091641840808	1.5912718095338532	0.29676581243451594	0.5690753824914915	0.1524366257469494	0.31602038506151947	0.4491766879081591	-0.06526833146288408	0.29656663943052325	0.39549793474000317	0.07178423385836206	0.4336296534484234	0.5355972585774674	0.21358821358391714	0.7058508346565486	0.616077722009062	0.2676110908446871	0.9496233285926764	0.6103445757055103	0.2798329067253506	1.0895425885618981	0.5728656454163661	0.29771228518595694	1.1100211235949593	0.5515791797540648	0.3056258430279013	1.0945052581161037	0.6038166228319293	0.32487552561348776	0.15280848118685014	0.5841453131475347	0.20053577760487032	-0.09878216773619371	0.6460745339732517	0.2135017382769309	-0.38009925682938356	0.6396576963652781	0.231511738279169	-0.4625592804068461	0.6176407909502638	0.23847012251671026	-0.47853288348410816	0.623551977636008	0.22647583167698856	-0.48117387911372395	0.6332892515326756	0.22127091158657855
65	1.3	0.38491644313121826	0.6550612098801173	0.6650893152978449	0.39753868477047827	0.7954204993647627	1.1201100474697896	0.37527092119232	0.9033667194501998	1.5326933131590696	0.3252966837041179	0.753090291641657	1.5838039618830198	0.39085960406580383	0.7835918222461749	1.593199595919165	0.33636657527871505	1.001685288197979	1.6147525630978192	0.19688139657938256	0.6356289923708545	0.6563608317229214	0.15656085228364547	0.8005929126638559	1.1005315284472872	0.14579823029501734	0.9127019660315784	1.5514884918878769	0.16701866171577193	0.7329898875314822	1.56286350757541	0.10373223343597852	0.7754011677536877	1.5649138634387754	0.1705592202922672	0.9756996867215884	1.5913717924943267	0.29685109969094153	0.5708419243863389	0.15618114221394588	0.3160132474044715	0.4491801346017565	-0.06521676673545344	0.29664314560984245	0.39552512791410827	0.07180471988517545	0.4336056060635679	0.5354734559098465	0.21358550899348816	0.7057846183144657	0.6156419636977181	0.2675310831659633	0.9461877723423983	0.5946844558193733	0.28024219453077087	1.0771317377371676	0.5744337578046038	0.2925421617824871	1.1008683154358323	0.5384847487288151	0.3057972614064142	1.0944858039833443	0.6018948212738872	0.3214643023030683	0.15279660850256774	0.5840395333341015	0.20060839743787864	-0.09945535688333565	0.6458830071756901	0.21727298368136422	-0.37417885682738283	0.6269618690883146	0.23202039592375542	-0.46232804165041774	0.6172617480600079	0.23848014122970232	-0.4784804781548947	0.6234249241116894	0.2264228111949402	-0.48096980917013304	0.6329766992087	0.22116561788004663
66	1.32	0.3848993658524989	0.6550726066759597	0.6651207310623917	0.396723484772238	0.7931394292622571	1.1155673948022624	0.37527446522145486	0.9034676226503562	1.5326880355347792	0.32539785082643496	0.7530626801934883	1.5837082732723864	0.39099253299425735	0.783650876303929	1.5931139407676855	0.3354092976271122	0.9988484961285823	1.6093226110244965	0.1968949224061614	0.6356077011014242	0.6563967239778031	0.15662402415323556	0.8004263077455762	1.100494858231291	0.14581529837567458	0.9124872528390905	1.5513140744291642	0.16710271930890291	0.7330520406323268	1.5629148396205212	0.10264953052927249	0.7766660825123382	1.5689940581244166	0.1705354286877404	0.9754754406332737	1.591205387996872	0.29681075413842156	0.5708409334823975	0.1561881430316017	0.31601433796317757	0.44912880769698454	-0.06518511635452223	0.2966124107945208	0.3955914461159377	0.0718646271963932	0.4336028354595173	0.5355817001140961	0.21360684298200994	0.7058632922679424	0.615808433587968	0.2675795512951427	0.9527886785939622	0.6065668819197072	0.28007452218108186	1.0771587371797513	0.5599371227263482	0.2967897795667566	1.100970071633635	0.5386514915276637	0.30605513477766794	1.0949042169972216	0.6029778697101357	0.32438570847765413	0.15282378754783996	0.5840909217942314	0.20062844606207278	-0.10332732252495676	0.6437452569786197	0.21730811667011524	-0.3741758173468277	0.6270290521455911	0.2320203296732223	-0.4566869096649397	0.6057770451239769	0.2422871871144458	-0.4784805287358406	0.623102698335416	0.22689929337277	-0.48127996105729864	0.6328534252715661	0.2214754658698621
67	1.34	0.3843255757075775	0.6531638611748224	0.6611748936632291	0.3966481676553302	0.7943999839848412	1.111755780037645	0.3799505526313666	0.9042741591592643	1.5330017856834588	0.32519046949431407	0.7544504439176789	1.5796520574525876	0.394896224150625	0.798547498500737	1.5940618670284203	0.3407705968566937	1.0041709710064306	1.6116104943987912	0.196736855878591	0.6361035245231965	0.6527531335982641	0.15657183266247846	0.8003620290138491	1.1004279610466134	0.145869702777028	0.9126544922863788	1.5513194110569706	0.16694139510802553	0.7328413799541978	1.5627613033332786	0.10374065265108266	0.7756453480545362	1.565070903258175	0.17067941833913577	0.9756666782618958	1.5912726954692398	0.2968360514915187	0.5709008732972821	0.15619179256227758	0.3160008522606015	0.4493238520418293	-0.061699279722686594	0.29672303248014037	0.39594349653441663	0.07186669268413143	0.43359439569899383	0.5355974582328882	0.21362145251691633	0.7002016359005848	0.6036559188178295	0.2643541039162369	0.9464315555540178	0.5947387696444739	0.28026979581904776	1.0807887500005113	0.5588249712853661	0.2973360575574551	1.1006035207750358	0.5384832762621118	0.30926519378404493	1.0948192997237822	0.6023892141576783	0.32830953890861136	0.15282773299792105	0.5841724326060259	0.2006120309498031	-0.10344875859301142	0.6438184179919257	0.21737235436588534	-0.38012212531780537	0.640020839514507	0.23125245858563243	-0.4508553448358836	0.5940342239692316	0.24564337907881578	-0.47876471183935543	0.6243863516901881	0.22693439323075879	-0.48156191846366936	0.6339372755136252	0.22124399520739188
